<svg width="22" height="22" viewBox="0 0 22 22" fill="none" xmlns="http://www.w3.org/2000/svg">
<path d="M10.9207 0C5.33573 3.98475e-07 5.68449 2.42198 5.68449 2.42198L5.69072 4.93112H11.0203V5.68449H3.57382C3.57382 5.68449 0 5.27919 0 10.9145C-3.98475e-07 16.5497 3.11931 16.3499 3.11931 16.3499H4.98093V13.7349C4.98093 13.7349 4.88059 10.6156 8.05043 10.6156C11.2203 10.6156 13.3364 10.6156 13.3364 10.6156C13.3364 10.6156 16.3063 10.6636 16.3063 7.74535C16.3063 4.82708 16.3063 2.92007 16.3063 2.92007C16.3063 2.92007 16.7572 0 10.9207 0ZM7.98194 1.68729C8.5122 1.68729 8.94077 2.11586 8.94077 2.64612C8.94077 3.17638 8.5122 3.60495 7.98194 3.60495C7.45169 3.60495 7.02311 3.17638 7.02311 2.64612C7.02311 2.11586 7.45169 1.68729 7.98194 1.68729Z" fill="url(#paint0_linear_1_18)"/>
<path d="M11.0793 21.8854C16.6643 21.8854 16.3155 19.4634 16.3155 19.4634L16.3093 16.9543H10.9797V16.2009H18.4262C18.4262 16.2009 22 16.6062 22 10.971C22 5.33568 18.8807 5.53551 18.8807 5.53551H17.0191V8.1505C17.0191 8.1505 17.1194 11.2698 13.9496 11.2698C10.7797 11.2698 8.66357 11.2698 8.66357 11.2698C8.66357 11.2698 5.69368 11.2218 5.69368 14.1401C5.69368 17.0583 5.69368 18.9654 5.69368 18.9654C5.69368 18.9654 5.24277 21.8854 11.0793 21.8854ZM14.0181 20.1981C13.4878 20.1981 13.0592 19.7696 13.0592 19.2393C13.0592 18.709 13.4878 18.2805 14.0181 18.2805C14.5483 18.2805 14.9769 18.709 14.9769 19.2393C14.9769 19.7696 14.5483 20.1981 14.0181 20.1981Z" fill="url(#paint1_linear_1_18)"/>
<defs>
<linearGradient id="paint0_linear_1_18" x1="2.11424" y1="1.91298" x2="12.9926" y2="12.8277" gradientUnits="userSpaceOnUse">
<stop stop-color="#387EB8"/>
<stop offset="1" stop-color="#366994"/>
</linearGradient>
<linearGradient id="paint1_linear_1_18" x1="8.80615" y1="8.85644" x2="20.4895" y2="20.0497" gradientUnits="userSpaceOnUse">
<stop stop-color="#FFE052"/>
<stop offset="1" stop-color="#FFC331"/>
</linearGradient>
</defs>
</svg>
