<svg width="22" height="25" viewBox="0 0 22 25" fill="none" xmlns="http://www.w3.org/2000/svg">
<g clip-path="url(#clip0_1_2)">
<path d="M21.7201 18.5679C21.8927 18.2688 22 17.9319 22 17.6294V7.12771C22 6.82517 21.8929 6.48834 21.7202 6.18933L11 12.3786L21.7201 18.5679Z" fill="#00599C"/>
<path d="M11.9526 24.5302L21.0474 19.2794C21.3094 19.1281 21.5475 18.8669 21.7201 18.5679L11 12.3786L0.279877 18.5679C0.452498 18.8669 0.690687 19.1282 0.952602 19.2794L10.0474 24.5302C10.5713 24.8328 11.4287 24.8328 11.9526 24.5302Z" fill="#004482"/>
<path d="M21.7202 6.18926C21.5475 5.89018 21.3093 5.62898 21.0474 5.47771L11.9526 0.226902C11.4287 -0.075634 10.5713 -0.075634 10.0474 0.226902L0.952614 5.47771C0.42864 5.78018 0 6.52271 0 7.12771V17.6294C0 17.9319 0.107196 18.2688 0.279889 18.5679L11 12.3786L21.7202 6.18926Z" fill="#659AD2"/>
<path d="M11 19.7119C6.95638 19.7119 3.66666 16.4222 3.66666 12.3786C3.66666 8.33498 6.95638 5.04526 11 5.04526C13.6092 5.04526 16.0427 6.44938 17.3506 8.70962L14.1769 10.5461C13.5223 9.41477 12.3049 8.71192 11 8.71192C8.97815 8.71192 7.33332 10.3567 7.33332 12.3786C7.33332 14.4004 8.97815 16.0453 11 16.0453C12.305 16.0453 13.5224 15.3424 14.1771 14.2108L17.3508 16.0473C16.0429 18.3077 13.6094 19.7119 11 19.7119Z" fill="white"/>
<path d="M18.3333 11.9712H17.5185V11.1564H16.7037V11.9712H15.8889V12.786H16.7037V13.6008H17.5185V12.786H18.3333V11.9712Z" fill="white"/>
<path d="M21.3889 11.9712H20.574V11.1564H19.7593V11.9712H18.9445V12.786H19.7593V13.6008H20.574V12.786H21.3889V11.9712Z" fill="white"/>
</g>
<defs>
<clipPath id="clip0_1_2">
<rect width="22" height="24.7572" fill="white"/>
</clipPath>
</defs>
</svg>
